<svg id="Layer_1" enable-background="new 0 0 512.002 512.002" height="512" viewBox="0 0 512.002 512.002" width="512" xmlns="http://www.w3.org/2000/svg"><g><g clip-rule="evenodd" fill-rule="evenodd"><path d="m166.267 442.002h221.227v60h-221.227z" fill="#ff9346"/><path d="m282.475 68.209-.801-28.209c-.468-16.493-12.944-30-28.761-30-15.818 0-28.761 13.5-28.761 30v52.003c-.359-16.496-12.943-30-28.761-30s-28.761 13.5-28.761 30v87.071 69.438c-20.107 0-25.114 6.173-32.986 21.718-2.059 4.067-4.315 8.774-7.088 14.18-4.89 9.532-16.243 26.892-8.821 46.572 21.461 56.905 52.761 50.401 57.786 97.231l.697-.139v13.927h201.324c0-34.625 19.175-69.251 19.175-103.876 0-32.125 0-52.25 0-84.374 0-41.703-43.216-54.154-58.475-41.793.936-.759 1.978-1.424 3.108-1.994l-1.752-136.775c-.211-16.498-12.944-30-28.761-30-14.193 0-26.07 10.869-28.362 25.02zm55.763 143.752c-.244.198-.48.402-.71.612.23-.21.466-.415.71-.612zm-.715.617c-.23.212-.453.43-.668.654.215-.225.438-.443.668-.654z" fill="#ffdcd5"/></g><g><path d="m373.915 200.604c-7.752-3.156-15.644-4.119-22.723-3.048l-1.595-124.495c-.282-21.986-17.669-39.872-38.76-39.872-6.989 0-13.547 1.929-19.215 5.283-.974-21.339-18.056-38.472-38.709-38.472-21.373 0-38.761 17.944-38.761 40v17.005c-5.547-3.189-11.933-5.001-18.761-5.001-21.373 0-38.761 17.944-38.761 40v147.144c-20.196 2.828-26.155 14.883-34.618 32.007-1.355 2.743-2.757 5.579-4.354 8.692-.47.916-1.003 1.908-1.574 2.971-5.584 10.399-15.979 29.757-7.706 51.695 11.015 29.207 24.779 43.18 35.838 54.408 11.672 11.849 19.828 20.148 21.621 43.104-5.322.226-9.571 4.6-9.571 9.978v60c0 5.523 4.477 10 10 10h221.227c5.523 0 10-4.477 10-10v-60c0-5.32-4.158-9.658-9.4-9.97 1.33-12.744 4.916-25.721 8.675-39.3 4.891-17.667 9.949-35.935 9.949-54.606v-84.375c0-29.334-16.945-46.688-32.802-53.148zm3.578 291.398h-201.226v-40h55.61c5.523 0 10-4.477 10-10s-4.477-10-10-10h-46.004c-2.164-31.474-14.455-43.968-27.407-57.118-10.743-10.906-21.852-22.184-31.373-47.43-5.065-13.43 1.684-25.998 6.612-35.175.635-1.182 1.227-2.286 1.749-3.304 1.666-3.246 3.166-6.281 4.489-8.959 6.956-14.074 9.429-19.078 16.688-20.74v53.477c0 5.523 4.477 10 10 10s10-4.477 10-10v-220.75c0-11.028 8.417-20 18.761-20 10.104 0 18.521 9.069 18.763 20.217l2.876 132.249c.12 5.521 4.672 9.946 10.215 9.78 5.521-.12 9.9-4.693 9.78-10.215l-2.874-132.137v-51.897c0-11.028 8.416-20 18.761-20 10.21 0 18.626 9.026 18.761 20.121l2.235 184.252c.067 5.481 4.53 9.879 9.997 9.879h.124c5.522-.067 9.945-4.598 9.878-10.121l-1.831-150.954c.006-11.022 8.42-19.988 18.761-19.988 10.203 0 18.619 9.029 18.761 20.128l1.982 154.704c.07 5.479 4.533 9.872 9.997 9.872h.13c5.522-.071 9.942-4.605 9.871-10.127l-.124-9.707c3.526-1.307 8.997-1.342 14.915 1.069 4.773 1.944 20.347 10.188 20.347 34.625v84.375c0 15.954-4.48 32.137-9.224 49.271-4.014 14.498-8.132 29.405-9.482 44.605h-46.134c-5.523 0-10 4.477-10 10s4.477 10 10 10h55.617v39.998z"/><path d="m509.073 38.859-35.93-35.93c-3.905-3.905-10.237-3.905-14.143 0s-3.905 10.237 0 14.143l18.859 18.859h-96.366c-5.523 0-10 4.477-10 10s4.477 10 10 10h96.366l-18.859 18.859c-3.905 3.905-3.905 10.237 0 14.142 1.953 1.953 4.512 2.929 7.071 2.929s5.119-.976 7.071-2.929l35.93-35.93c3.906-3.906 3.906-10.238.001-14.143z"/><path d="m34.143 55.93h96.367c5.523 0 10-4.477 10-10s-4.477-10-10-10h-96.367l18.859-18.859c3.905-3.905 3.905-10.237 0-14.143-3.906-3.905-10.237-3.904-14.143 0l-35.93 35.931c-1.875 1.876-2.929 4.419-2.929 7.071s1.054 5.196 2.929 7.071l35.931 35.931c1.953 1.953 4.512 2.929 7.071 2.929s5.119-.976 7.071-2.929c3.905-3.905 3.905-10.237 0-14.143z"/><path d="m276.88 432.002h-.007c-5.523 0-9.996 4.477-9.996 10s4.48 10 10.003 10 10-4.477 10-10-4.477-10-10-10z"/></g></g></svg>